<svg width="185" height="26" viewBox="0 0 185 26" fill="none" xmlns="http://www.w3.org/2000/svg">
<path d="M8.73438 19L4.60938 5.55859H4.50391C4.65234 8.29297 4.72656 10.1172 4.72656 11.0312V19H1.48047V1.86719H6.42578L10.4805 14.9688H10.5508L14.8516 1.86719H19.7969V19H16.4102V10.8906C16.4102 10.5078 16.4141 10.0664 16.4219 9.56641C16.4375 9.06641 16.4922 7.73828 16.5859 5.58203H16.4805L12.0625 19H8.73438ZM32.1602 19L31.4688 17.2188H31.375C30.7734 17.9766 30.1523 18.5039 29.5117 18.8008C28.8789 19.0898 28.0508 19.2344 27.0273 19.2344C25.7695 19.2344 24.7773 18.875 24.0508 18.1562C23.332 17.4375 22.9727 16.4141 22.9727 15.0859C22.9727 13.6953 23.457 12.6719 24.4258 12.0156C25.4023 11.3516 26.8711 10.9844 28.832 10.9141L31.1055 10.8438V10.2695C31.1055 8.94141 30.4258 8.27734 29.0664 8.27734C28.0195 8.27734 26.7891 8.59375 25.375 9.22656L24.1914 6.8125C25.6992 6.02344 27.3711 5.62891 29.207 5.62891C30.9648 5.62891 32.3125 6.01172 33.25 6.77734C34.1875 7.54297 34.6562 8.70703 34.6562 10.2695V19H32.1602ZM31.1055 12.9297L29.7227 12.9766C28.6836 13.0078 27.9102 13.1953 27.4023 13.5391C26.8945 13.8828 26.6406 14.4062 26.6406 15.1094C26.6406 16.1172 27.2188 16.6211 28.375 16.6211C29.2031 16.6211 29.8633 16.3828 30.3555 15.9062C30.8555 15.4297 31.1055 14.7969 31.1055 14.0078V12.9297ZM38.1953 2.51172C38.1953 1.34766 38.8438 0.765625 40.1406 0.765625C41.4375 0.765625 42.0859 1.34766 42.0859 2.51172C42.0859 3.06641 41.9219 3.5 41.5938 3.8125C41.2734 4.11719 40.7891 4.26953 40.1406 4.26953C38.8438 4.26953 38.1953 3.68359 38.1953 2.51172ZM41.9219 19H38.3477V5.89844H41.9219V19ZM44.6289 24.7656C43.7148 24.7656 42.9297 24.668 42.2734 24.4727V21.6602C42.8203 21.8086 43.3789 21.8828 43.9492 21.8828C44.5508 21.8828 44.9883 21.7148 45.2617 21.3789C45.543 21.043 45.6836 20.5469 45.6836 19.8906V5.89844H49.2578V20.418C49.2578 21.8086 48.8555 22.8789 48.0508 23.6289C47.2461 24.3867 46.1055 24.7656 44.6289 24.7656ZM45.5312 2.51172C45.5312 1.34766 46.1797 0.765625 47.4766 0.765625C48.7734 0.765625 49.4219 1.34766 49.4219 2.51172C49.4219 3.06641 49.2578 3.5 48.9297 3.8125C48.6094 4.11719 48.125 4.26953 47.4766 4.26953C46.1797 4.26953 45.5312 3.68359 45.5312 2.51172ZM61.3398 19L60.6484 17.2188H60.5547C59.9531 17.9766 59.332 18.5039 58.6914 18.8008C58.0586 19.0898 57.2305 19.2344 56.207 19.2344C54.9492 19.2344 53.957 18.875 53.2305 18.1562C52.5117 17.4375 52.1523 16.4141 52.1523 15.0859C52.1523 13.6953 52.6367 12.6719 53.6055 12.0156C54.582 11.3516 56.0508 10.9844 58.0117 10.9141L60.2852 10.8438V10.2695C60.2852 8.94141 59.6055 8.27734 58.2461 8.27734C57.1992 8.27734 55.9688 8.59375 54.5547 9.22656L53.3711 6.8125C54.8789 6.02344 56.5508 5.62891 58.3867 5.62891C60.1445 5.62891 61.4922 6.01172 62.4297 6.77734C63.3672 7.54297 63.8359 8.70703 63.8359 10.2695V19H61.3398ZM60.2852 12.9297L58.9023 12.9766C57.8633 13.0078 57.0898 13.1953 56.582 13.5391C56.0742 13.8828 55.8203 14.4062 55.8203 15.1094C55.8203 16.1172 56.3984 16.6211 57.5547 16.6211C58.3828 16.6211 59.043 16.3828 59.5352 15.9062C60.0352 15.4297 60.2852 14.7969 60.2852 14.0078V12.9297ZM77.6758 9.92969H78.8711C79.9883 9.92969 80.8242 9.71094 81.3789 9.27344C81.9336 8.82812 82.2109 8.18359 82.2109 7.33984C82.2109 6.48828 81.9766 5.85938 81.5078 5.45312C81.0469 5.04688 80.3203 4.84375 79.3281 4.84375H77.6758V9.92969ZM85.8789 7.21094C85.8789 9.05469 85.3008 10.4648 84.1445 11.4414C82.9961 12.418 81.3594 12.9062 79.2344 12.9062H77.6758V19H74.043V1.86719H79.5156C81.5938 1.86719 83.1719 2.31641 84.25 3.21484C85.3359 4.10547 85.8789 5.4375 85.8789 7.21094ZM94.2578 8.19531C93.5 8.19531 92.9062 8.4375 92.4766 8.92188C92.0469 9.39844 91.8008 10.0781 91.7383 10.9609H96.7539C96.7383 10.0781 96.5078 9.39844 96.0625 8.92188C95.6172 8.4375 95.0156 8.19531 94.2578 8.19531ZM94.7617 19.2344C92.6523 19.2344 91.0039 18.6523 89.8164 17.4883C88.6289 16.3242 88.0352 14.6758 88.0352 12.543C88.0352 10.3477 88.582 8.65234 89.6758 7.45703C90.7773 6.25391 92.2969 5.65234 94.2344 5.65234C96.0859 5.65234 97.5273 6.17969 98.5586 7.23438C99.5898 8.28906 100.105 9.74609 100.105 11.6055V13.3398H91.6562C91.6953 14.3555 91.9961 15.1484 92.5586 15.7188C93.1211 16.2891 93.9102 16.5742 94.9258 16.5742C95.7148 16.5742 96.4609 16.4922 97.1641 16.3281C97.8672 16.1641 98.6016 15.9023 99.3672 15.543V18.3086C98.7422 18.6211 98.0742 18.8516 97.3633 19C96.6523 19.1562 95.7852 19.2344 94.7617 19.2344ZM110.324 5.65234C110.809 5.65234 111.211 5.6875 111.531 5.75781L111.262 9.10938C110.973 9.03125 110.621 8.99219 110.207 8.99219C109.066 8.99219 108.176 9.28516 107.535 9.87109C106.902 10.457 106.586 11.2773 106.586 12.332V19H103.012V5.89844H105.719L106.246 8.10156H106.422C106.828 7.36719 107.375 6.77734 108.062 6.33203C108.758 5.87891 109.512 5.65234 110.324 5.65234ZM121.152 8.58203H118.059V19H114.484V8.58203H112.516V6.85938L114.484 5.89844V4.9375C114.484 3.44531 114.852 2.35547 115.586 1.66797C116.32 0.980469 117.496 0.636719 119.113 0.636719C120.348 0.636719 121.445 0.820312 122.406 1.1875L121.492 3.8125C120.773 3.58594 120.109 3.47266 119.5 3.47266C118.992 3.47266 118.625 3.625 118.398 3.92969C118.172 4.22656 118.059 4.60938 118.059 5.07812V5.89844H121.152V8.58203ZM123.051 2.51172C123.051 1.34766 123.699 0.765625 124.996 0.765625C126.293 0.765625 126.941 1.34766 126.941 2.51172C126.941 3.06641 126.777 3.5 126.449 3.8125C126.129 4.11719 125.645 4.26953 124.996 4.26953C123.699 4.26953 123.051 3.68359 123.051 2.51172ZM126.777 19H123.203V5.89844H126.777V19ZM134.102 19H130.527V0.765625H134.102V19ZM136.809 24.7656C135.895 24.7656 135.109 24.668 134.453 24.4727V21.6602C135 21.8086 135.559 21.8828 136.129 21.8828C136.73 21.8828 137.168 21.7148 137.441 21.3789C137.723 21.043 137.863 20.5469 137.863 19.8906V5.89844H141.438V20.418C141.438 21.8086 141.035 22.8789 140.23 23.6289C139.426 24.3867 138.285 24.7656 136.809 24.7656ZM137.711 2.51172C137.711 1.34766 138.359 0.765625 139.656 0.765625C140.953 0.765625 141.602 1.34766 141.602 2.51172C141.602 3.06641 141.438 3.5 141.109 3.8125C140.789 4.11719 140.305 4.26953 139.656 4.26953C138.359 4.26953 137.711 3.68359 137.711 2.51172ZM150.625 8.19531C149.867 8.19531 149.273 8.4375 148.844 8.92188C148.414 9.39844 148.168 10.0781 148.105 10.9609H153.121C153.105 10.0781 152.875 9.39844 152.43 8.92188C151.984 8.4375 151.383 8.19531 150.625 8.19531ZM151.129 19.2344C149.02 19.2344 147.371 18.6523 146.184 17.4883C144.996 16.3242 144.402 14.6758 144.402 12.543C144.402 10.3477 144.949 8.65234 146.043 7.45703C147.145 6.25391 148.664 5.65234 150.602 5.65234C152.453 5.65234 153.895 6.17969 154.926 7.23438C155.957 8.28906 156.473 9.74609 156.473 11.6055V13.3398H148.023C148.062 14.3555 148.363 15.1484 148.926 15.7188C149.488 16.2891 150.277 16.5742 151.293 16.5742C152.082 16.5742 152.828 16.4922 153.531 16.3281C154.234 16.1641 154.969 15.9023 155.734 15.543V18.3086C155.109 18.6211 154.441 18.8516 153.73 19C153.02 19.1562 152.152 19.2344 151.129 19.2344ZM162.496 19L157.504 5.89844H161.242L163.773 13.3633C164.055 14.3086 164.23 15.2031 164.301 16.0469H164.371C164.41 15.2969 164.586 14.4023 164.898 13.3633L167.418 5.89844H171.156L166.164 19H162.496ZM181.363 19L180.672 17.2188H180.578C179.977 17.9766 179.355 18.5039 178.715 18.8008C178.082 19.0898 177.254 19.2344 176.23 19.2344C174.973 19.2344 173.98 18.875 173.254 18.1562C172.535 17.4375 172.176 16.4141 172.176 15.0859C172.176 13.6953 172.66 12.6719 173.629 12.0156C174.605 11.3516 176.074 10.9844 178.035 10.9141L180.309 10.8438V10.2695C180.309 8.94141 179.629 8.27734 178.27 8.27734C177.223 8.27734 175.992 8.59375 174.578 9.22656L173.395 6.8125C174.902 6.02344 176.574 5.62891 178.41 5.62891C180.168 5.62891 181.516 6.01172 182.453 6.77734C183.391 7.54297 183.859 8.70703 183.859 10.2695V19H181.363ZM180.309 12.9297L178.926 12.9766C177.887 13.0078 177.113 13.1953 176.605 13.5391C176.098 13.8828 175.844 14.4062 175.844 15.1094C175.844 16.1172 176.422 16.6211 177.578 16.6211C178.406 16.6211 179.066 16.3828 179.559 15.9062C180.059 15.4297 180.309 14.7969 180.309 14.0078V12.9297Z" fill="#FCFCFC"/>
<path d="M8.73438 19L8.25638 19.1467L8.3648 19.5H8.73438V19ZM4.60938 5.55859L5.08737 5.4119L4.97895 5.05859H4.60938V5.55859ZM4.50391 5.55859V5.05859H3.97603L4.00464 5.5857L4.50391 5.55859ZM4.72656 19V19.5H5.22656V19H4.72656ZM1.48047 19H0.980469V19.5H1.48047V19ZM1.48047 1.86719V1.36719H0.980469V1.86719H1.48047ZM6.42578 1.86719L6.90343 1.71936L6.79444 1.36719H6.42578V1.86719ZM10.4805 14.9688L10.0028 15.1166L10.1118 15.4688H10.4805V14.9688ZM10.5508 14.9688V15.4688H10.9129L11.0258 15.1247L10.5508 14.9688ZM14.8516 1.86719V1.36719H14.4894L14.3765 1.71124L14.8516 1.86719ZM19.7969 1.86719H20.2969V1.36719H19.7969V1.86719ZM19.7969 19V19.5H20.2969V19H19.7969ZM16.4102 19H15.9102V19.5H16.4102V19ZM16.4219 9.56641L15.9221 9.55079L15.9219 9.55859L16.4219 9.56641ZM16.5859 5.58203L17.0855 5.60375L17.1081 5.08203H16.5859V5.58203ZM16.4805 5.58203V5.08203H16.1187L16.0055 5.42566L16.4805 5.58203ZM12.0625 19V19.5H12.4243L12.5374 19.1564L12.0625 19ZM9.21237 18.8533L5.08737 5.4119L4.13138 5.70529L8.25638 19.1467L9.21237 18.8533ZM4.60938 5.05859H4.50391V6.05859H4.60938V5.05859ZM4.00464 5.5857C4.1532 8.32232 4.22656 10.133 4.22656 11.0312H5.22656C5.22656 10.1014 5.15149 8.26362 5.00317 5.53149L4.00464 5.5857ZM4.22656 11.0312V19H5.22656V11.0312H4.22656ZM4.72656 18.5H1.48047V19.5H4.72656V18.5ZM1.98047 19V1.86719H0.980469V19H1.98047ZM1.48047 2.36719H6.42578V1.36719H1.48047V2.36719ZM5.94813 2.01501L10.0028 15.1166L10.9581 14.8209L6.90343 1.71936L5.94813 2.01501ZM10.4805 15.4688H10.5508V14.4688H10.4805V15.4688ZM11.0258 15.1247L15.3266 2.02313L14.3765 1.71124L10.0757 14.8128L11.0258 15.1247ZM14.8516 2.36719H19.7969V1.36719H14.8516V2.36719ZM19.2969 1.86719V19H20.2969V1.86719H19.2969ZM19.7969 18.5H16.4102V19.5H19.7969V18.5ZM16.9102 19V10.8906H15.9102V19H16.9102ZM16.9102 10.8906C16.9102 10.5111 16.914 10.0724 16.9218 9.57422L15.9219 9.55859C15.9141 10.0605 15.9102 10.5046 15.9102 10.8906H16.9102ZM16.9216 9.58202C16.9371 9.0858 16.9917 7.76129 17.0855 5.60375L16.0864 5.56031C15.9927 7.71527 15.9379 9.04701 15.9221 9.55079L16.9216 9.58202ZM16.5859 5.08203H16.4805V6.08203H16.5859V5.08203ZM16.0055 5.42566L11.5876 18.8436L12.5374 19.1564L16.9554 5.7384L16.0055 5.42566ZM12.0625 18.5H8.73438V19.5H12.0625V18.5ZM32.1602 19L31.694 19.1809L31.8179 19.5H32.1602V19ZM31.4688 17.2188L31.9349 17.0378L31.811 16.7188H31.4688V17.2188ZM31.375 17.2188V16.7188H31.1335L30.9834 16.9079L31.375 17.2188ZM29.5117 18.8008L29.7195 19.2556L29.7219 19.2544L29.5117 18.8008ZM24.0508 18.1562L23.6972 18.5098L23.6991 18.5117L24.0508 18.1562ZM24.4258 12.0156L24.7062 12.4296L24.7069 12.4291L24.4258 12.0156ZM28.832 10.9141L28.8166 10.4143L28.8141 10.4144L28.832 10.9141ZM31.1055 10.8438L31.1209 11.3435L31.6055 11.3285V10.8438H31.1055ZM25.375 9.22656L24.9261 9.44668L25.1386 9.88015L25.5792 9.68295L25.375 9.22656ZM24.1914 6.8125L23.9596 6.36949L23.5281 6.59531L23.7425 7.03261L24.1914 6.8125ZM34.6562 19V19.5H35.1562V19H34.6562ZM31.1055 12.9297H31.6055V12.4125L31.0885 12.43L31.1055 12.9297ZM29.7227 12.9766L29.7377 13.4763L29.7396 13.4763L29.7227 12.9766ZM30.3555 15.9062L30.0105 15.5443L30.0077 15.547L30.3555 15.9062ZM32.6263 18.8191L31.9349 17.0378L31.0026 17.3997L31.694 19.1809L32.6263 18.8191ZM31.4688 16.7188H31.375V17.7188H31.4688V16.7188ZM30.9834 16.9079C30.4133 17.626 29.8501 18.0929 29.3015 18.3471L29.7219 19.2544C30.4546 18.9149 31.1336 18.3271 31.7666 17.5296L30.9834 16.9079ZM29.304 18.346C28.7596 18.5946 28.0101 18.7344 27.0273 18.7344V19.7344C28.0915 19.7344 28.9982 19.5851 29.7195 19.2556L29.304 18.346ZM27.0273 18.7344C25.869 18.7344 25.0147 18.4065 24.4024 17.8008L23.6991 18.5117C24.54 19.3435 25.6701 19.7344 27.0273 19.7344V18.7344ZM24.4043 17.8027C23.8055 17.2039 23.4727 16.3238 23.4727 15.0859H22.4727C22.4727 16.5044 22.8585 17.6711 23.6972 18.5098L24.4043 17.8027ZM23.4727 15.0859C23.4727 13.8253 23.9021 12.9743 24.7062 12.4296L24.1454 11.6017C23.012 12.3694 22.4727 13.5654 22.4727 15.0859H23.4727ZM24.7069 12.4291C25.5697 11.8424 26.9274 11.4827 28.8499 11.4137L28.8141 10.4144C26.8148 10.4861 25.235 10.8607 24.1446 11.6022L24.7069 12.4291ZM28.8475 11.4138L31.1209 11.3435L31.09 10.344L28.8166 10.4143L28.8475 11.4138ZM31.6055 10.8438V10.2695H30.6055V10.8438H31.6055ZM31.6055 10.2695C31.6055 9.52541 31.4143 8.87616 30.9451 8.41775C30.4781 7.96144 29.8203 7.77734 29.0664 7.77734V8.77734C29.6719 8.77734 30.0336 8.92527 30.2463 9.13303C30.4568 9.33868 30.6055 9.68553 30.6055 10.2695H31.6055ZM29.0664 7.77734C27.9237 7.77734 26.6209 8.12122 25.1708 8.77018L25.5792 9.68295C26.9572 9.06628 28.1153 8.77734 29.0664 8.77734V7.77734ZM25.8239 9.00645L24.6403 6.59239L23.7425 7.03261L24.9261 9.44668L25.8239 9.00645ZM24.4232 7.25551C25.8539 6.50679 27.4453 6.12891 29.207 6.12891V5.12891C27.2969 5.12891 25.5445 5.54008 23.9596 6.36949L24.4232 7.25551ZM29.207 6.12891C30.9003 6.12891 32.1182 6.49855 32.9337 7.16461L33.5663 6.39008C32.5068 5.52488 31.0294 5.12891 29.207 5.12891V6.12891ZM32.9337 7.16461C33.7228 7.80899 34.1562 8.80997 34.1562 10.2695H35.1562C35.1562 8.60409 34.6522 7.27695 33.5663 6.39008L32.9337 7.16461ZM34.1562 10.2695V19H35.1562V10.2695H34.1562ZM34.6562 18.5H32.1602V19.5H34.6562V18.5ZM31.0885 12.43L29.7057 12.4768L29.7396 13.4763L31.1224 13.4294L31.0885 12.43ZM29.7076 12.4768C28.6323 12.5091 27.7458 12.7028 27.1221 13.125L27.6826 13.9531C28.0745 13.6878 28.7349 13.5065 29.7377 13.4763L29.7076 12.4768ZM27.1221 13.125C26.455 13.5766 26.1406 14.2686 26.1406 15.1094H27.1406C27.1406 14.5439 27.3341 14.1891 27.6826 13.9531L27.1221 13.125ZM26.1406 15.1094C26.1406 15.7096 26.316 16.2455 26.7457 16.6201C27.1623 16.9832 27.7354 17.1211 28.375 17.1211V16.1211C27.8584 16.1211 27.5643 16.007 27.4027 15.8662C27.2544 15.7369 27.1406 15.517 27.1406 15.1094H26.1406ZM28.375 17.1211C29.3041 17.1211 30.099 16.8505 30.7033 16.2655L30.0077 15.547C29.6276 15.9151 29.1021 16.1211 28.375 16.1211V17.1211ZM30.7004 16.2682C31.3139 15.6835 31.6055 14.9123 31.6055 14.0078H30.6055C30.6055 14.6814 30.3971 15.1759 30.0105 15.5443L30.7004 16.2682ZM31.6055 14.0078V12.9297H30.6055V14.0078H31.6055ZM41.5938 3.8125L41.9384 4.17478L41.9386 4.17457L41.5938 3.8125ZM41.9219 19V19.5H42.4219V19H41.9219ZM38.3477 19H37.8477V19.5H38.3477V19ZM38.3477 5.89844V5.39844H37.8477V5.89844H38.3477ZM41.9219 5.89844H42.4219V5.39844H41.9219V5.89844ZM38.6953 2.51172C38.6953 2.02156 38.8294 1.74144 39.0156 1.57424C39.2122 1.39782 39.5567 1.26562 40.1406 1.26562V0.265625C39.4276 0.265625 38.7995 0.424447 38.3477 0.830056C37.8855 1.24489 37.6953 1.83782 37.6953 2.51172H38.6953ZM40.1406 1.26562C40.7245 1.26562 41.0691 1.39782 41.2656 1.57424C41.4519 1.74144 41.5859 2.02156 41.5859 2.51172H42.5859C42.5859 1.83782 42.3958 1.24489 41.9336 0.830056C41.4817 0.424447 40.8536 0.265625 40.1406 0.265625V1.26562ZM41.5859 2.51172C41.5859 2.96244 41.4564 3.2528 41.2489 3.45043L41.9386 4.17457C42.3873 3.7472 42.5859 3.17037 42.5859 2.51172H41.5859ZM41.2491 3.45022C41.0573 3.63271 40.72 3.76953 40.1406 3.76953V4.76953C40.8581 4.76953 41.4896 4.60167 41.9384 4.17478L41.2491 3.45022ZM40.1406 3.76953C39.5574 3.76953 39.2134 3.6367 39.0169 3.4591C38.8299 3.2902 38.6953 3.00677 38.6953 2.51172H37.6953C37.6953 3.18854 37.8849 3.78402 38.3464 4.20106C38.7983 4.6094 39.4269 4.76953 40.1406 4.76953V3.76953ZM41.9219 18.5H38.3477V19.5H41.9219V18.5ZM38.8477 19V5.89844H37.8477V19H38.8477ZM38.3477 6.39844H41.9219V5.39844H38.3477V6.39844ZM41.4219 5.89844V19H42.4219V5.89844H41.4219ZM42.2734 24.4727H41.7734V24.8455L42.1308 24.9519L42.2734 24.4727ZM42.2734 21.6602L42.4044 21.1776L41.7734 21.0064V21.6602H42.2734ZM45.2617 21.3789L44.8783 21.0579L44.8739 21.0633L45.2617 21.3789ZM45.6836 5.89844V5.39844H45.1836V5.89844H45.6836ZM49.2578 5.89844H49.7578V5.39844H49.2578V5.89844ZM48.0508 23.6289L47.7099 23.2631L47.708 23.2649L48.0508 23.6289ZM48.9297 3.8125L49.2743 4.17478L49.2745 4.17457L48.9297 3.8125ZM44.6289 24.2656C43.7481 24.2656 43.0135 24.1712 42.4161 23.9934L42.1308 24.9519C42.8459 25.1647 43.6816 25.2656 44.6289 25.2656V24.2656ZM42.7734 24.4727V21.6602H41.7734V24.4727H42.7734ZM42.1425 22.1427C42.7323 22.3028 43.335 22.3828 43.9492 22.3828V21.3828C43.4229 21.3828 42.9083 21.3144 42.4044 21.1776L42.1425 22.1427ZM43.9492 22.3828C44.6396 22.3828 45.2481 22.1877 45.6495 21.6945L44.8739 21.0633C44.7285 21.242 44.4619 21.3828 43.9492 21.3828V22.3828ZM45.6451 21.6999C46.0313 21.2386 46.1836 20.6079 46.1836 19.8906H45.1836C45.1836 20.4858 45.0546 20.8474 44.8783 21.0579L45.6451 21.6999ZM46.1836 19.8906V5.89844H45.1836V19.8906H46.1836ZM45.6836 6.39844H49.2578V5.39844H45.6836V6.39844ZM48.7578 5.89844V20.418H49.7578V5.89844H48.7578ZM48.7578 20.418C48.7578 21.7089 48.3877 22.6314 47.7099 23.2631L48.3917 23.9947C49.3232 23.1264 49.7578 21.9083 49.7578 20.418H48.7578ZM47.708 23.2649C47.0237 23.9094 46.0218 24.2656 44.6289 24.2656V25.2656C46.1891 25.2656 47.4685 24.8641 48.3936 23.9929L47.708 23.2649ZM46.0312 2.51172C46.0312 2.02156 46.1653 1.74144 46.3516 1.57424C46.5481 1.39782 46.8927 1.26562 47.4766 1.26562V0.265625C46.7636 0.265625 46.1355 0.424447 45.6836 0.830056C45.2214 1.24489 45.0312 1.83782 45.0312 2.51172H46.0312ZM47.4766 1.26562C48.0605 1.26562 48.405 1.39782 48.6016 1.57424C48.7878 1.74144 48.9219 2.02156 48.9219 2.51172H49.9219C49.9219 1.83782 49.7317 1.24489 49.2695 0.830056C48.8176 0.424447 48.1895 0.265625 47.4766 0.265625V1.26562ZM48.9219 2.51172C48.9219 2.96244 48.7924 3.2528 48.5849 3.45043L49.2745 4.17457C49.7233 3.7472 49.9219 3.17037 49.9219 2.51172H48.9219ZM48.5851 3.45022C48.3932 3.63271 48.056 3.76953 47.4766 3.76953V4.76953C48.194 4.76953 48.8255 4.60167 49.2743 4.17478L48.5851 3.45022ZM47.4766 3.76953C46.8934 3.76953 46.5493 3.6367 46.3528 3.4591C46.1659 3.2902 46.0312 3.00677 46.0312 2.51172H45.0312C45.0312 3.18854 45.2208 3.78402 45.6824 4.20106C46.1343 4.6094 46.7629 4.76953 47.4766 4.76953V3.76953ZM61.3398 19L60.8737 19.1809L60.9976 19.5H61.3398V19ZM60.6484 17.2188L61.1146 17.0378L60.9907 16.7188H60.6484V17.2188ZM60.5547 17.2188V16.7188H60.3132L60.1631 16.9079L60.5547 17.2188ZM58.6914 18.8008L58.8992 19.2556L58.9016 19.2544L58.6914 18.8008ZM53.2305 18.1562L52.8769 18.5098L52.8788 18.5117L53.2305 18.1562ZM53.6055 12.0156L53.8859 12.4296L53.8866 12.4291L53.6055 12.0156ZM58.0117 10.9141L57.9963 10.4143L57.9938 10.4144L58.0117 10.9141ZM60.2852 10.8438L60.3006 11.3435L60.7852 11.3285V10.8438H60.2852ZM54.5547 9.22656L54.1057 9.44668L54.3183 9.88015L54.7589 9.68295L54.5547 9.22656ZM53.3711 6.8125L53.1393 6.36949L52.7077 6.59531L52.9222 7.03261L53.3711 6.8125ZM63.8359 19V19.5H64.3359V19H63.8359ZM60.2852 12.9297H60.7852V12.4125L60.2682 12.43L60.2852 12.9297ZM58.9023 12.9766L58.9174 13.4763L58.9193 13.4763L58.9023 12.9766ZM59.5352 15.9062L59.1902 15.5443L59.1874 15.547L59.5352 15.9062ZM61.806 18.8191L61.1146 17.0378L60.1823 17.3997L60.8737 19.1809L61.806 18.8191ZM60.6484 16.7188H60.5547V17.7188H60.6484V16.7188ZM60.1631 16.9079C59.593 17.626 59.0298 18.0929 58.4812 18.3471L58.9016 19.2544C59.6343 18.9149 60.3133 18.3271 60.9463 17.5296L60.1631 16.9079ZM58.4837 18.346C57.9393 18.5946 57.1897 18.7344 56.207 18.7344V19.7344C57.2712 19.7344 58.1779 19.5851 58.8992 19.2556L58.4837 18.346ZM56.207 18.7344C55.0487 18.7344 54.1944 18.4065 53.5821 17.8008L52.8788 18.5117C53.7196 19.3435 54.8497 19.7344 56.207 19.7344V18.7344ZM53.584 17.8027C52.9852 17.2039 52.6523 16.3238 52.6523 15.0859H51.6523C51.6523 16.5044 52.0382 17.6711 52.8769 18.5098L53.584 17.8027ZM52.6523 15.0859C52.6523 13.8253 53.0817 12.9743 53.8859 12.4296L53.325 11.6017C52.1917 12.3694 51.6523 13.5654 51.6523 15.0859H52.6523ZM53.8866 12.4291C54.7494 11.8424 56.1071 11.4827 58.0296 11.4137L57.9938 10.4144C55.9945 10.4861 54.4147 10.8607 53.3243 11.6022L53.8866 12.4291ZM58.0272 11.4138L60.3006 11.3435L60.2697 10.344L57.9963 10.4143L58.0272 11.4138ZM60.7852 10.8438V10.2695H59.7852V10.8438H60.7852ZM60.7852 10.2695C60.7852 9.52541 60.594 8.87616 60.1248 8.41775C59.6578 7.96144 59 7.77734 58.2461 7.77734V8.77734C58.8516 8.77734 59.2133 8.92527 59.426 9.13303C59.6365 9.33868 59.7852 9.68553 59.7852 10.2695H60.7852ZM58.2461 7.77734C57.1034 7.77734 55.8006 8.12122 54.3504 8.77018L54.7589 9.68295C56.1369 9.06628 57.295 8.77734 58.2461 8.77734V7.77734ZM55.0036 9.00645L53.82 6.59239L52.9222 7.03261L54.1057 9.44668L55.0036 9.00645ZM53.6029 7.25551C55.0336 6.50679 56.625 6.12891 58.3867 6.12891V5.12891C56.4766 5.12891 54.7242 5.54008 53.1393 6.36949L53.6029 7.25551ZM58.3867 6.12891C60.08 6.12891 61.2978 6.49855 62.1134 7.16461L62.746 6.39008C61.6865 5.52488 60.2091 5.12891 58.3867 5.12891V6.12891ZM62.1134 7.16461C62.9025 7.80899 63.3359 8.80997 63.3359 10.2695H64.3359C64.3359 8.60409 63.8319 7.27695 62.746 6.39008L62.1134 7.16461ZM63.3359 10.2695V19H64.3359V10.2695H63.3359ZM63.8359 18.5H61.3398V19.5H63.8359V18.5ZM60.2682 12.43L58.8854 12.4768L58.9193 13.4763L60.3021 13.4294L60.2682 12.43ZM58.8873 12.4768C57.812 12.5091 56.9255 12.7028 56.3017 13.125L56.8623 13.9531C57.2542 13.6878 57.9146 13.5065 58.9174 13.4763L58.8873 12.4768ZM56.3017 13.125C55.6347 13.5766 55.3203 14.2686 55.3203 15.1094H56.3203C56.3203 14.5439 56.5138 14.1891 56.8623 13.9531L56.3017 13.125ZM55.3203 15.1094C55.3203 15.7096 55.4956 16.2455 55.9254 16.6201C56.342 16.9832 56.9151 17.1211 57.5547 17.1211V16.1211C57.0381 16.1211 56.744 16.007 56.5824 15.8662C56.434 15.7369 56.3203 15.517 56.3203 15.1094H55.3203ZM57.5547 17.1211C58.4838 17.1211 59.2787 16.8505 59.883 16.2655L59.1874 15.547C58.8072 15.9151 58.2818 16.1211 57.5547 16.1211V17.1211ZM59.8801 16.2682C60.4936 15.6835 60.7852 14.9123 60.7852 14.0078H59.7852C59.7852 14.6814 59.5767 15.1759 59.1902 15.5443L59.8801 16.2682ZM60.7852 14.0078V12.9297H59.7852V14.0078H60.7852ZM77.6758 9.92969H77.1758V10.4297H77.6758V9.92969ZM81.3789 9.27344L81.6886 9.66603L81.6919 9.66334L81.3789 9.27344ZM81.5078 5.45312L81.1772 5.82824L81.1803 5.83097L81.5078 5.45312ZM77.6758 4.84375V4.34375H77.1758V4.84375H77.6758ZM84.1445 11.4414L83.8219 11.0594L83.8206 11.0605L84.1445 11.4414ZM77.6758 12.9062V12.4062H77.1758V12.9062H77.6758ZM77.6758 19V19.5H78.1758V19H77.6758ZM74.043 19H73.543V19.5H74.043V19ZM74.043 1.86719V1.36719H73.543V1.86719H74.043ZM84.25 3.21484L83.9299 3.59897L83.9329 3.60145L84.25 3.21484ZM77.6758 10.4297H78.8711V9.42969H77.6758V10.4297ZM78.8711 10.4297C80.0395 10.4297 81.0073 10.2033 81.6885 9.66602L81.0693 8.88085C80.6411 9.21857 79.9371 9.42969 78.8711 9.42969V10.4297ZM81.6919 9.66334C82.3873 9.10504 82.7109 8.30373 82.7109 7.33984H81.7109C81.7109 8.06346 81.4798 8.55121 81.0659 8.88354L81.6919 9.66334ZM82.7109 7.33984C82.7109 6.39984 82.4501 5.60816 81.8353 5.07528L81.1803 5.83097C81.503 6.11059 81.7109 6.57673 81.7109 7.33984H82.7109ZM81.8384 5.07802C81.2444 4.55448 80.3716 4.34375 79.3281 4.34375V5.34375C80.269 5.34375 80.8494 5.53927 81.1772 5.82823L81.8384 5.07802ZM79.3281 4.34375H77.6758V5.34375H79.3281V4.34375ZM77.1758 4.84375V9.92969H78.1758V4.84375H77.1758ZM85.3789 7.21094C85.3789 8.94265 84.8413 10.1984 83.8219 11.0594L84.4672 11.8234C85.7603 10.7312 86.3789 9.16673 86.3789 7.21094H85.3789ZM83.8206 11.0605C82.7935 11.9339 81.2888 12.4062 79.2344 12.4062V13.4062C81.43 13.4062 83.1987 12.902 84.4684 11.8223L83.8206 11.0605ZM79.2344 12.4062H77.6758V13.4062H79.2344V12.4062ZM77.1758 12.9062V19H78.1758V12.9062H77.1758ZM77.6758 18.5H74.043V19.5H77.6758V18.5ZM74.543 19V1.86719H73.543V19H74.543ZM74.043 2.36719H79.5156V1.36719H74.043V2.36719ZM79.5156 2.36719C81.5312 2.36719 82.9761 2.80409 83.9299 3.59895L84.5701 2.83073C83.3677 1.82872 81.6563 1.36719 79.5156 1.36719V2.36719ZM83.9329 3.60145C84.8736 4.37294 85.3789 5.54446 85.3789 7.21094H86.3789C86.3789 5.33054 85.7983 3.838 84.5671 2.82824L83.9329 3.60145ZM92.4766 8.92188L92.8479 9.2567L92.8506 9.25368L92.4766 8.92188ZM91.7383 10.9609L91.2395 10.9256L91.2016 11.4609H91.7383V10.9609ZM96.7539 10.9609V11.4609H97.2628L97.2538 10.9521L96.7539 10.9609ZM96.0625 8.92188L95.6944 9.26029L95.6972 9.26325L96.0625 8.92188ZM89.6758 7.45703L89.307 7.11939L89.3069 7.1195L89.6758 7.45703ZM100.105 13.3398V13.8398H100.605V13.3398H100.105ZM91.6562 13.3398V12.8398H91.1366L91.1566 13.3591L91.6562 13.3398ZM99.3672 15.543H99.8672V14.7559L99.1547 15.0904L99.3672 15.543ZM99.3672 18.3086L99.5908 18.7558L99.8672 18.6176V18.3086H99.3672ZM97.3633 19L97.2611 18.5105L97.256 18.5117L97.3633 19ZM94.2578 7.69531C93.3838 7.69531 92.6435 7.98019 92.1025 8.59007L92.8506 9.25368C93.169 8.89481 93.6162 8.69531 94.2578 8.69531V7.69531ZM92.1052 8.58706C91.577 9.17285 91.307 9.97316 91.2395 10.9256L92.237 10.9962C92.2946 10.1831 92.5167 9.62402 92.8479 9.25669L92.1052 8.58706ZM91.7383 11.4609H96.7539V10.4609H91.7383V11.4609ZM97.2538 10.9521C97.2368 9.98987 96.9836 9.17527 96.4278 8.5805L95.6972 9.26325C96.032 9.6216 96.2398 10.1664 96.254 10.9698L97.2538 10.9521ZM96.4306 8.58348C95.8759 7.98011 95.1322 7.69531 94.2578 7.69531V8.69531C94.8991 8.69531 95.3585 8.89489 95.6944 9.26027L96.4306 8.58348ZM94.7617 18.7344C92.7464 18.7344 91.2371 18.1808 90.1664 17.1312L89.4664 17.8453C90.7707 19.1239 92.5583 19.7344 94.7617 19.7344V18.7344ZM90.1664 17.1312C89.1 16.0859 88.5352 14.5813 88.5352 12.543H87.5352C87.5352 14.7702 88.1578 16.5626 89.4664 17.8453L90.1664 17.1312ZM88.5352 12.543C88.5352 10.4276 89.0614 8.86918 90.0447 7.79457L89.3069 7.1195C88.1027 8.43551 87.5352 10.2677 87.5352 12.543H88.5352ZM90.0446 7.79468C91.0336 6.71441 92.4085 6.15234 94.2344 6.15234V5.15234C92.1853 5.15234 90.5211 5.7934 89.307 7.11939L90.0446 7.79468ZM94.2344 6.15234C95.9877 6.15234 97.2866 6.64867 98.2011 7.58393L98.9161 6.88482C97.7681 5.71071 96.1841 5.15234 94.2344 5.15234V6.15234ZM98.2011 7.58393C99.1187 8.52243 99.6055 9.84102 99.6055 11.6055H100.605C100.605 9.65116 100.061 8.05569 98.9161 6.88482L98.2011 7.58393ZM99.6055 11.6055V13.3398H100.605V11.6055H99.6055ZM100.105 12.8398H91.6562V13.8398H100.105V12.8398ZM91.1566 13.3591C91.1991 14.4646 91.5308 15.3887 92.2026 16.0699L92.9146 15.3676C92.4614 14.9082 92.1915 14.2463 92.1559 13.3206L91.1566 13.3591ZM92.2026 16.0699C92.8826 16.7593 93.8141 17.0742 94.9258 17.0742V16.0742C94.0062 16.0742 93.3596 15.8188 92.9146 15.3676L92.2026 16.0699ZM94.9258 17.0742C95.7496 17.0742 96.534 16.9886 97.2777 16.815L97.0504 15.8412C96.3878 15.9958 95.6801 16.0742 94.9258 16.0742V17.0742ZM97.2777 16.815C98.0201 16.6418 98.7876 16.3674 99.5796 15.9956L99.1547 15.0904C98.4155 15.4373 97.7143 15.6863 97.0504 15.8412L97.2777 16.815ZM98.8672 15.543V18.3086H99.8672V15.543H98.8672ZM99.1436 17.8614C98.5586 18.1539 97.9316 18.3706 97.2611 18.5106L97.4655 19.4894C98.2169 19.3326 98.9258 19.0883 99.5908 18.7558L99.1436 17.8614ZM97.256 18.5117C96.5913 18.6577 95.7624 18.7344 94.7617 18.7344V19.7344C95.8079 19.7344 96.7134 19.6548 97.4706 19.4883L97.256 18.5117ZM111.531 5.75781L112.03 5.79789L112.065 5.36299L111.638 5.26944L111.531 5.75781ZM111.262 9.10938L111.131 9.59206L111.712 9.74898L111.76 9.14946L111.262 9.10938ZM107.535 9.87109L107.198 9.50214L107.195 9.50421L107.535 9.87109ZM106.586 19V19.5H107.086V19H106.586ZM103.012 19H102.512V19.5H103.012V19ZM103.012 5.89844V5.39844H102.512V5.89844H103.012ZM105.719 5.89844L106.205 5.78204L106.113 5.39844H105.719V5.89844ZM106.246 8.10156L105.76 8.21796L105.852 8.60156H106.246V8.10156ZM106.422 8.10156V8.60156H106.717L106.859 8.34359L106.422 8.10156ZM108.062 6.33203L108.334 6.75169L108.335 6.75093L108.062 6.33203ZM110.324 6.15234C110.788 6.15234 111.151 6.18631 111.424 6.24618L111.638 5.26944C111.271 5.18869 110.829 5.15234 110.324 5.15234V6.15234ZM111.033 5.71773L110.763 9.06929L111.76 9.14946L112.03 5.79789L111.033 5.71773ZM111.392 8.62669C111.048 8.53363 110.65 8.49219 110.207 8.49219V9.49219C110.593 9.49219 110.897 9.52887 111.131 9.59206L111.392 8.62669ZM110.207 8.49219C108.982 8.49219 107.956 8.80824 107.198 9.50214L107.873 10.24C108.395 9.76207 109.151 9.49219 110.207 9.49219V8.49219ZM107.195 9.50421C106.438 10.2053 106.086 11.1715 106.086 12.332H107.086C107.086 11.3832 107.366 10.7087 107.875 10.238L107.195 9.50421ZM106.086 12.332V19H107.086V12.332H106.086ZM106.586 18.5H103.012V19.5H106.586V18.5ZM103.512 19V5.89844H102.512V19H103.512ZM103.012 6.39844H105.719V5.39844H103.012V6.39844ZM105.232 6.01483L105.76 8.21796L106.732 7.98517L106.205 5.78204L105.232 6.01483ZM106.246 8.60156H106.422V7.60156H106.246V8.60156ZM106.859 8.34359C107.227 7.67931 107.718 7.15118 108.334 6.75169L107.791 5.91237C107.032 6.4035 106.429 7.05507 105.984 7.85953L106.859 8.34359ZM108.335 6.75093C108.951 6.34953 109.611 6.15234 110.324 6.15234V5.15234C109.413 5.15234 108.564 5.40829 107.79 5.91313L108.335 6.75093ZM121.152 8.58203V9.08203H121.652V8.58203H121.152ZM118.059 8.58203V8.08203H117.559V8.58203H118.059ZM118.059 19V19.5H118.559V19H118.059ZM114.484 19H113.984V19.5H114.484V19ZM114.484 8.58203H114.984V8.08203H114.484V8.58203ZM112.516 8.58203H112.016V9.08203H112.516V8.58203ZM112.516 6.85938L112.296 6.41004L112.016 6.54704V6.85938H112.516ZM114.484 5.89844L114.704 6.34777L114.984 6.21077V5.89844H114.484ZM122.406 1.1875L122.878 1.35192L123.038 0.893648L122.585 0.720437L122.406 1.1875ZM121.492 3.8125L121.342 4.28937L121.805 4.43528L121.964 3.97692L121.492 3.8125ZM118.398 3.92969L118.796 4.23305L118.8 4.22804L118.398 3.92969ZM118.059 5.89844H117.559V6.39844H118.059V5.89844ZM121.152 5.89844H121.652V5.39844H121.152V5.89844ZM126.449 3.8125L126.794 4.17478L126.794 4.17457L126.449 3.8125ZM126.777 19V19.5H127.277V19H126.777ZM123.203 19H122.703V19.5H123.203V19ZM123.203 5.89844V5.39844H122.703V5.89844H123.203ZM126.777 5.89844H127.277V5.39844H126.777V5.89844ZM121.152 8.08203H118.059V9.08203H121.152V8.08203ZM117.559 8.58203V19H118.559V8.58203H117.559ZM118.059 18.5H114.484V19.5H118.059V18.5ZM114.984 19V8.58203H113.984V19H114.984ZM114.484 8.08203H112.516V9.08203H114.484V8.08203ZM113.016 8.58203V6.85938H112.016V8.58203H113.016ZM112.735 7.30871L114.704 6.34777L114.265 5.4491L112.296 6.41004L112.735 7.30871ZM114.984 5.89844V4.9375H113.984V5.89844H114.984ZM114.984 4.9375C114.984 3.51659 115.335 2.58823 115.928 2.03298L115.244 1.30296C114.369 2.1227 113.984 3.37404 113.984 4.9375H114.984ZM115.928 2.03298C116.527 1.47189 117.55 1.13672 119.113 1.13672V0.136719C117.443 0.136719 116.114 0.489044 115.244 1.30296L115.928 2.03298ZM119.113 1.13672C120.299 1.13672 121.334 1.31302 122.228 1.65456L122.585 0.720437C121.557 0.327602 120.397 0.136719 119.113 0.136719V1.13672ZM121.934 1.02308L121.02 3.64808L121.964 3.97692L122.878 1.35192L121.934 1.02308ZM121.643 3.33563C120.886 3.09721 120.171 2.97266 119.5 2.97266V3.97266C120.048 3.97266 120.661 4.07466 121.342 4.28937L121.643 3.33563ZM119.5 2.97266C118.892 2.97266 118.348 3.15957 117.997 3.63134L118.8 4.22804C118.902 4.09043 119.092 3.97266 119.5 3.97266V2.97266ZM118.001 3.62635C117.693 4.03054 117.559 4.52817 117.559 5.07812H118.559C118.559 4.69058 118.651 4.42259 118.796 4.23302L118.001 3.62635ZM117.559 5.07812V5.89844H118.559V5.07812H117.559ZM118.059 6.39844H121.152V5.39844H118.059V6.39844ZM120.652 5.89844V8.58203H121.652V5.89844H120.652ZM123.551 2.51172C123.551 2.02156 123.685 1.74144 123.871 1.57424C124.068 1.39782 124.412 1.26562 124.996 1.26562V0.265625C124.283 0.265625 123.655 0.424447 123.203 0.830056C122.741 1.24489 122.551 1.83782 122.551 2.51172H123.551ZM124.996 1.26562C125.58 1.26562 125.925 1.39782 126.121 1.57424C126.307 1.74144 126.441 2.02156 126.441 2.51172H127.441C127.441 1.83782 127.251 1.24489 126.789 0.830056C126.337 0.424447 125.709 0.265625 124.996 0.265625V1.26562ZM126.441 2.51172C126.441 2.96244 126.312 3.2528 126.104 3.45043L126.794 4.17457C127.243 3.7472 127.441 3.17037 127.441 2.51172H126.441ZM126.105 3.45022C125.913 3.63271 125.576 3.76953 124.996 3.76953V4.76953C125.714 4.76953 126.345 4.60167 126.794 4.17478L126.105 3.45022ZM124.996 3.76953C124.413 3.76953 124.069 3.6367 123.872 3.4591C123.685 3.2902 123.551 3.00677 123.551 2.51172H122.551C122.551 3.18854 122.74 3.78402 123.202 4.20106C123.654 4.6094 124.282 4.76953 124.996 4.76953V3.76953ZM126.777 18.5H123.203V19.5H126.777V18.5ZM123.703 19V5.89844H122.703V19H123.703ZM123.203 6.39844H126.777V5.39844H123.203V6.39844ZM126.277 5.89844V19H127.277V5.89844H126.277ZM134.102 19V19.5H134.602V19H134.102ZM130.527 19H130.027V19.5H130.527V19ZM130.527 0.765625V0.265625H130.027V0.765625H130.527ZM134.102 0.765625H134.602V0.265625H134.102V0.765625ZM134.102 18.5H130.527V19.5H134.102V18.5ZM131.027 19V0.765625H130.027V19H131.027ZM130.527 1.26562H134.102V0.265625H130.527V1.26562ZM133.602 0.765625V19H134.602V0.765625H133.602ZM134.453 24.4727H133.953V24.8455L134.31 24.9519L134.453 24.4727ZM134.453 21.6602L134.584 21.1776L133.953 21.0064V21.6602H134.453ZM137.441 21.3789L137.058 21.0579L137.054 21.0633L137.441 21.3789ZM137.863 5.89844V5.39844H137.363V5.89844H137.863ZM141.438 5.89844H141.938V5.39844H141.438V5.89844ZM140.23 23.6289L139.89 23.2631L139.888 23.2649L140.23 23.6289ZM141.109 3.8125L141.454 4.17478L141.454 4.17457L141.109 3.8125ZM136.809 24.2656C135.928 24.2656 135.193 24.1712 134.596 23.9934L134.31 24.9519C135.026 25.1647 135.861 25.2656 136.809 25.2656V24.2656ZM134.953 24.4727V21.6602H133.953V24.4727H134.953ZM134.322 22.1427C134.912 22.3028 135.515 22.3828 136.129 22.3828V21.3828C135.603 21.3828 135.088 21.3144 134.584 21.1776L134.322 22.1427ZM136.129 22.3828C136.819 22.3828 137.428 22.1877 137.829 21.6945L137.054 21.0633C136.908 21.242 136.642 21.3828 136.129 21.3828V22.3828ZM137.825 21.6999C138.211 21.2386 138.363 20.6079 138.363 19.8906H137.363C137.363 20.4858 137.234 20.8474 137.058 21.0579L137.825 21.6999ZM138.363 19.8906V5.89844H137.363V19.8906H138.363ZM137.863 6.39844H141.438V5.39844H137.863V6.39844ZM140.938 5.89844V20.418H141.938V5.89844H140.938ZM140.938 20.418C140.938 21.7089 140.567 22.6314 139.89 23.2631L140.571 23.9947C141.503 23.1264 141.938 21.9083 141.938 20.418H140.938ZM139.888 23.2649C139.203 23.9094 138.202 24.2656 136.809 24.2656V25.2656C138.369 25.2656 139.648 24.8641 140.573 23.9929L139.888 23.2649ZM138.211 2.51172C138.211 2.02156 138.345 1.74144 138.531 1.57424C138.728 1.39782 139.072 1.26562 139.656 1.26562V0.265625C138.943 0.265625 138.315 0.424447 137.863 0.830056C137.401 1.24489 137.211 1.83782 137.211 2.51172H138.211ZM139.656 1.26562C140.24 1.26562 140.585 1.39782 140.781 1.57424C140.968 1.74144 141.102 2.02156 141.102 2.51172H142.102C142.102 1.83782 141.911 1.24489 141.449 0.830056C140.997 0.424447 140.369 0.265625 139.656 0.265625V1.26562ZM141.102 2.51172C141.102 2.96244 140.972 3.2528 140.765 3.45043L141.454 4.17457C141.903 3.7472 142.102 3.17037 142.102 2.51172H141.102ZM140.765 3.45022C140.573 3.63271 140.236 3.76953 139.656 3.76953V4.76953C140.374 4.76953 141.005 4.60167 141.454 4.17478L140.765 3.45022ZM139.656 3.76953C139.073 3.76953 138.729 3.6367 138.532 3.4591C138.346 3.2902 138.211 3.00677 138.211 2.51172H137.211C137.211 3.18854 137.401 3.78402 137.862 4.20106C138.314 4.6094 138.943 4.76953 139.656 4.76953V3.76953ZM148.844 8.92188L149.215 9.2567L149.218 9.25368L148.844 8.92188ZM148.105 10.9609L147.607 10.9256L147.569 11.4609H148.105V10.9609ZM153.121 10.9609V11.4609H153.63L153.621 10.9521L153.121 10.9609ZM152.43 8.92188L152.062 9.26029L152.064 9.26325L152.43 8.92188ZM146.043 7.45703L145.674 7.11939L145.674 7.1195L146.043 7.45703ZM156.473 13.3398V13.8398H156.973V13.3398H156.473ZM148.023 13.3398V12.8398H147.504L147.524 13.3591L148.023 13.3398ZM155.734 15.543H156.234V14.7559L155.522 15.0904L155.734 15.543ZM155.734 18.3086L155.958 18.7558L156.234 18.6176V18.3086H155.734ZM153.73 19L153.628 18.5105L153.623 18.5117L153.73 19ZM150.625 7.69531C149.751 7.69531 149.011 7.98019 148.47 8.59007L149.218 9.25368C149.536 8.89481 149.983 8.69531 150.625 8.69531V7.69531ZM148.472 8.58706C147.944 9.17285 147.674 9.97316 147.607 10.9256L148.604 10.9962C148.662 10.1831 148.884 9.62402 149.215 9.25669L148.472 8.58706ZM148.105 11.4609H153.121V10.4609H148.105V11.4609ZM153.621 10.9521C153.604 9.98987 153.351 9.17527 152.795 8.5805L152.064 9.26325C152.399 9.6216 152.607 10.1664 152.621 10.9698L153.621 10.9521ZM152.798 8.58348C152.243 7.98011 151.499 7.69531 150.625 7.69531V8.69531C151.266 8.69531 151.726 8.89489 152.062 9.26027L152.798 8.58348ZM151.129 18.7344C149.114 18.7344 147.604 18.1808 146.534 17.1312L145.834 17.8453C147.138 19.1239 148.925 19.7344 151.129 19.7344V18.7344ZM146.534 17.1312C145.467 16.0859 144.902 14.5813 144.902 12.543H143.902C143.902 14.7702 144.525 16.5626 145.834 17.8453L146.534 17.1312ZM144.902 12.543C144.902 10.4276 145.429 8.86918 146.412 7.79457L145.674 7.1195C144.47 8.43551 143.902 10.2677 143.902 12.543H144.902ZM146.412 7.79468C147.401 6.71441 148.776 6.15234 150.602 6.15234V5.15234C148.552 5.15234 146.888 5.7934 145.674 7.11939L146.412 7.79468ZM150.602 6.15234C152.355 6.15234 153.654 6.64867 154.568 7.58393L155.283 6.88482C154.135 5.71071 152.551 5.15234 150.602 5.15234V6.15234ZM154.568 7.58393C155.486 8.52243 155.973 9.84102 155.973 11.6055H156.973C156.973 9.65116 156.428 8.05569 155.283 6.88482L154.568 7.58393ZM155.973 11.6055V13.3398H156.973V11.6055H155.973ZM156.473 12.8398H148.023V13.8398H156.473V12.8398ZM147.524 13.3591C147.566 14.4646 147.898 15.3887 148.57 16.0699L149.282 15.3676C148.829 14.9082 148.559 14.2463 148.523 13.3206L147.524 13.3591ZM148.57 16.0699C149.25 16.7593 150.181 17.0742 151.293 17.0742V16.0742C150.373 16.0742 149.727 15.8188 149.282 15.3676L148.57 16.0699ZM151.293 17.0742C152.117 17.0742 152.901 16.9886 153.645 16.815L153.418 15.8412C152.755 15.9958 152.047 16.0742 151.293 16.0742V17.0742ZM153.645 16.815C154.387 16.6418 155.155 16.3674 155.947 15.9956L155.522 15.0904C154.783 15.4373 154.081 15.6863 153.418 15.8412L153.645 16.815ZM155.234 15.543V18.3086H156.234V15.543H155.234ZM155.511 17.8614C154.926 18.1539 154.299 18.3706 153.628 18.5106L153.833 19.4894C154.584 19.3326 155.293 19.0883 155.958 18.7558L155.511 17.8614ZM153.623 18.5117C152.958 18.6577 152.13 18.7344 151.129 18.7344V19.7344C152.175 19.7344 153.081 19.6548 153.838 19.4883L153.623 18.5117ZM162.496 19L162.029 19.178L162.152 19.5H162.496V19ZM157.504 5.89844V5.39844H156.778L157.037 6.07647L157.504 5.89844ZM161.242 5.89844L161.716 5.73787L161.601 5.39844H161.242V5.89844ZM163.773 13.3633L164.253 13.2207L164.25 13.2117L164.247 13.2027L163.773 13.3633ZM164.301 16.0469L163.803 16.0884L163.841 16.5469H164.301V16.0469ZM164.371 16.0469V16.5469H164.846L164.87 16.0729L164.371 16.0469ZM164.898 13.3633L164.425 13.2034L164.422 13.2113L164.42 13.2193L164.898 13.3633ZM167.418 5.89844V5.39844H167.059L166.944 5.73854L167.418 5.89844ZM171.156 5.89844L171.623 6.07647L171.882 5.39844H171.156V5.89844ZM166.164 19V19.5H166.509L166.631 19.178L166.164 19ZM162.963 18.822L157.971 5.72041L157.037 6.07647L162.029 19.178L162.963 18.822ZM157.504 6.39844H161.242V5.39844H157.504V6.39844ZM160.769 6.059L163.3 13.5238L164.247 13.2027L161.716 5.73787L160.769 6.059ZM163.294 13.5059C163.567 14.4235 163.735 15.284 163.803 16.0884L164.799 16.0054C164.725 15.1223 164.542 14.1937 164.253 13.2207L163.294 13.5059ZM164.301 16.5469H164.371V15.5469H164.301V16.5469ZM164.87 16.0729C164.907 15.3763 165.072 14.5234 165.377 13.5073L164.42 13.2193C164.1 14.2813 163.914 15.2175 163.872 16.0209L164.87 16.0729ZM165.372 13.5232L167.892 6.05834L166.944 5.73854L164.425 13.2034L165.372 13.5232ZM167.418 6.39844H171.156V5.39844H167.418V6.39844ZM170.689 5.72041L165.697 18.822L166.631 19.178L171.623 6.07647L170.689 5.72041ZM166.164 18.5H162.496V19.5H166.164V18.5ZM181.363 19L180.897 19.1809L181.021 19.5H181.363V19ZM180.672 17.2188L181.138 17.0378L181.014 16.7188H180.672V17.2188ZM180.578 17.2188V16.7188H180.337L180.187 16.9079L180.578 17.2188ZM178.715 18.8008L178.923 19.2556L178.925 19.2544L178.715 18.8008ZM173.254 18.1562L172.9 18.5098L172.902 18.5117L173.254 18.1562ZM173.629 12.0156L173.909 12.4296L173.91 12.4291L173.629 12.0156ZM178.035 10.9141L178.02 10.4143L178.017 10.4144L178.035 10.9141ZM180.309 10.8438L180.324 11.3435L180.809 11.3285V10.8438H180.309ZM174.578 9.22656L174.129 9.44668L174.342 9.88015L174.782 9.68295L174.578 9.22656ZM173.395 6.8125L173.163 6.36949L172.731 6.59531L172.946 7.03261L173.395 6.8125ZM183.859 19V19.5H184.359V19H183.859ZM180.309 12.9297H180.809V12.4125L180.292 12.43L180.309 12.9297ZM178.926 12.9766L178.941 13.4763L178.943 13.4763L178.926 12.9766ZM179.559 15.9062L179.214 15.5443L179.211 15.547L179.559 15.9062ZM181.829 18.8191L181.138 17.0378L180.206 17.3997L180.897 19.1809L181.829 18.8191ZM180.672 16.7188H180.578V17.7188H180.672V16.7188ZM180.187 16.9079C179.616 17.626 179.053 18.0929 178.505 18.3471L178.925 19.2544C179.658 18.9149 180.337 18.3271 180.97 17.5296L180.187 16.9079ZM178.507 18.346C177.963 18.5946 177.213 18.7344 176.23 18.7344V19.7344C177.295 19.7344 178.201 19.5851 178.923 19.2556L178.507 18.346ZM176.23 18.7344C175.072 18.7344 174.218 18.4065 173.606 17.8008L172.902 18.5117C173.743 19.3435 174.873 19.7344 176.23 19.7344V18.7344ZM173.607 17.8027C173.009 17.2039 172.676 16.3238 172.676 15.0859H171.676C171.676 16.5044 172.062 17.6711 172.9 18.5098L173.607 17.8027ZM172.676 15.0859C172.676 13.8253 173.105 12.9743 173.909 12.4296L173.348 11.6017C172.215 12.3694 171.676 13.5654 171.676 15.0859H172.676ZM173.91 12.4291C174.773 11.8424 176.131 11.4827 178.053 11.4137L178.017 10.4144C176.018 10.4861 174.438 10.8607 173.348 11.6022L173.91 12.4291ZM178.051 11.4138L180.324 11.3435L180.293 10.344L178.02 10.4143L178.051 11.4138ZM180.809 10.8438V10.2695H179.809V10.8438H180.809ZM180.809 10.2695C180.809 9.52541 180.617 8.87616 180.148 8.41775C179.681 7.96144 179.023 7.77734 178.27 7.77734V8.77734C178.875 8.77734 179.237 8.92527 179.449 9.13303C179.66 9.33868 179.809 9.68553 179.809 10.2695H180.809ZM178.27 7.77734C177.127 7.77734 175.824 8.12122 174.374 8.77018L174.782 9.68295C176.16 9.06628 177.318 8.77734 178.27 8.77734V7.77734ZM175.027 9.00645L173.843 6.59239L172.946 7.03261L174.129 9.44668L175.027 9.00645ZM173.626 7.25551C175.057 6.50679 176.648 6.12891 178.41 6.12891V5.12891C176.5 5.12891 174.748 5.54008 173.163 6.36949L173.626 7.25551ZM178.41 6.12891C180.103 6.12891 181.321 6.49855 182.137 7.16461L182.769 6.39008C181.71 5.52488 180.233 5.12891 178.41 5.12891V6.12891ZM182.137 7.16461C182.926 7.80899 183.359 8.80997 183.359 10.2695H184.359C184.359 8.60409 183.855 7.27695 182.769 6.39008L182.137 7.16461ZM183.359 10.2695V19H184.359V10.2695H183.359ZM183.859 18.5H181.363V19.5H183.859V18.5ZM180.292 12.43L178.909 12.4768L178.943 13.4763L180.326 13.4294L180.292 12.43ZM178.911 12.4768C177.835 12.5091 176.949 12.7028 176.325 13.125L176.886 13.9531C177.278 13.6878 177.938 13.5065 178.941 13.4763L178.911 12.4768ZM176.325 13.125C175.658 13.5766 175.344 14.2686 175.344 15.1094H176.344C176.344 14.5439 176.537 14.1891 176.886 13.9531L176.325 13.125ZM175.344 15.1094C175.344 15.7096 175.519 16.2455 175.949 16.6201C176.365 16.9832 176.939 17.1211 177.578 17.1211V16.1211C177.061 16.1211 176.767 16.007 176.606 15.8662C176.457 15.7369 176.344 15.517 176.344 15.1094H175.344ZM177.578 17.1211C178.507 17.1211 179.302 16.8505 179.906 16.2655L179.211 15.547C178.831 15.9151 178.305 16.1211 177.578 16.1211V17.1211ZM179.904 16.2682C180.517 15.6835 180.809 14.9123 180.809 14.0078H179.809C179.809 14.6814 179.6 15.1759 179.214 15.5443L179.904 16.2682ZM180.809 14.0078V12.9297H179.809V14.0078H180.809Z" fill="#333333"/>
</svg>
